<svg xmlns="http://www.w3.org/2000/svg" width="19" height="19" viewBox="0 0 19 19">
  <path id="Icon_awesome-address-book" data-name="Icon awesome-address-book" d="M17.518,5.625A.456.456,0,0,0,18,5.2V3.8a.456.456,0,0,0-.482-.422h-.8V1.688A1.821,1.821,0,0,0,14.786,0H1.929A1.821,1.821,0,0,0,0,1.688V16.313A1.821,1.821,0,0,0,1.929,18H14.786a1.821,1.821,0,0,0,1.929-1.687V14.625h.8A.456.456,0,0,0,18,14.2V12.8a.456.456,0,0,0-.482-.422h-.8v-2.25h.8A.456.456,0,0,0,18,9.7V8.3a.456.456,0,0,0-.482-.422h-.8V5.625ZM8.357,4.5a2.429,2.429,0,0,1,2.571,2.25A2.429,2.429,0,0,1,8.357,9,2.429,2.429,0,0,1,5.786,6.75,2.429,2.429,0,0,1,8.357,4.5Zm4.5,8.325c0,.373-.4.675-.9.675h-7.2c-.5,0-.9-.3-.9-.675V12.15c0-1.118,1.209-2.025,2.7-2.025h.2a4.687,4.687,0,0,0,3.2,0h.2c1.491,0,2.7.907,2.7,2.025Z" transform="translate(0.5 0.5)" fill="none" stroke="#000" stroke-width="1"/>
</svg>
