<svg xmlns="http://www.w3.org/2000/svg" width="24" height="24" viewBox="0 0 24 24">
  <path id="Icon_material-archive" data-name="Icon material-archive" d="M27.887,7.473l-1.853-2.24A1.935,1.935,0,0,0,24.5,4.5H8.5a1.982,1.982,0,0,0-1.547.733l-1.84,2.24A2.611,2.611,0,0,0,4.5,9.167V25.833A2.675,2.675,0,0,0,7.167,28.5H25.833A2.675,2.675,0,0,0,28.5,25.833V9.167a2.611,2.611,0,0,0-.613-1.693ZM16.5,23.833,9.167,16.5h4.667V13.833h5.333V16.5h4.667ZM7.327,7.167l1.08-1.333h16L25.66,7.167Z" transform="translate(-4.5 -4.5)" fill="#fff"/>
</svg>
