<svg xmlns="http://www.w3.org/2000/svg" width="20" height="20" viewBox="0 0 20 20">
  <path id="Icon_awesome-arrow-left" data-name="Icon awesome-arrow-left" d="M11.493,21.308,10.5,22.324a1.048,1.048,0,0,1-1.513,0l-8.678-8.9a1.115,1.115,0,0,1,0-1.553l8.678-8.9a1.048,1.048,0,0,1,1.513,0l.991,1.017a1.121,1.121,0,0,1-.018,1.571L6.1,10.815H18.925A1.083,1.083,0,0,1,20,11.914V13.38a1.083,1.083,0,0,1-1.071,1.1H6.1l5.379,5.258A1.112,1.112,0,0,1,11.493,21.308Z" transform="translate(0.004 -2.647)" fill="#fff"/>
</svg>
