<svg xmlns="http://www.w3.org/2000/svg" width="12.794" height="11.429" viewBox="0 0 12.794 11.429">
  <path id="Icon_metro-camera" data-name="Icon metro-camera" d="M6.369,12.378a2.737,2.737,0,0,0,2.6,2.857,2.737,2.737,0,0,0,2.6-2.857,2.737,2.737,0,0,0-2.6-2.857,2.737,2.737,0,0,0-2.6,2.857Zm8.2-4.835h-2.8c-.2-.879-.4-1.758-1.2-1.758h-3.2c-.8,0-1,.879-1.2,1.758H3.37a.845.845,0,0,0-.8.879v7.912a.845.845,0,0,0,.8.879H14.565a.845.845,0,0,0,.8-.879V8.422a.845.845,0,0,0-.8-.879Zm-5.6,8.736a3.737,3.737,0,0,1-3.548-3.9,3.737,3.737,0,0,1,3.548-3.9,3.737,3.737,0,0,1,3.548,3.9A3.737,3.737,0,0,1,8.967,16.279Zm5.6-6.1h-1.6V9.3h1.6Z" transform="translate(-2.571 -5.784)" fill="#fff"/>
</svg>
