<svg xmlns="http://www.w3.org/2000/svg" width="18" height="17" viewBox="0 0 18 17">
  <g id="Group_4962" data-name="Group 4962" transform="translate(0 0)">
    <path id="Icon_awesome-edit" data-name="Icon awesome-edit" d="M12.581,2.767l2.819,3a.339.339,0,0,1,0,.458L8.575,13.474l-2.9.342A.628.628,0,0,1,5,13.1l.322-3.082L12.15,2.767A.293.293,0,0,1,12.581,2.767Zm5.063-.76L16.119.386a1.172,1.172,0,0,0-1.725,0L13.288,1.561a.339.339,0,0,0,0,.458l2.819,3a.293.293,0,0,0,.431,0l1.106-1.176a1.357,1.357,0,0,0,0-1.833ZM12,11.5v3.381H2V4.255H9.181a.373.373,0,0,0,.266-.116L10.7,2.81a.4.4,0,0,0-.266-.681H1.5A1.55,1.55,0,0,0,0,3.723v11.69a1.55,1.55,0,0,0,1.5,1.594h11A1.55,1.55,0,0,0,14,15.413v-5.24a.373.373,0,0,0-.641-.282l-1.25,1.328A.422.422,0,0,0,12,11.5Z" transform="translate(0 -0.007)" fill="#fff"/>
  </g>
</svg>
