<svg xmlns="http://www.w3.org/2000/svg" width="24" height="24" viewBox="0 0 24 24">
  <path id="Invite-595b40b75ba036ed117d6399" d="M12,0A3.413,3.413,0,0,0,9.795.765C9.682.85,9.441,1.059,9,1.44h6c-.385-.339-.662-.583-.765-.66A3.444,3.444,0,0,0,12,0ZM4.32,2.4a.48.48,0,0,0-.48.48v9.24l3.99,3.135c1.03-.81,1.785-1.4,1.965-1.53A3.871,3.871,0,0,1,12,12.96a3.582,3.582,0,0,1,2.22.78c.173.139.905.719,1.92,1.515l4.02-3.135V2.88a.48.48,0,0,0-.48-.48H4.32Zm7.2,2.4h.96V7.68h2.88v.96H12.48v2.88h-.96V8.64H8.64V7.68h2.88ZM2.88,6.825C1.334,8.195.165,9.24.165,9.24L2.88,11.37Zm18.24,0V11.37l2.715-2.13S22.666,8.195,21.12,6.825ZM0,10.335v11.1c1.658-1.311,4.779-3.767,7.065-5.565L3.84,13.35l-.135-.1Zm24,0-2.88,2.25-.96.765v-.015L16.92,15.87c2.278,1.788,5.409,4.239,7.08,5.55ZM12,13.92a2.935,2.935,0,0,0-1.635.585C9.755,14.952,2.113,20.979,0,22.65v.87A.48.48,0,0,0,.48,24H23.52a.48.48,0,0,0,.48-.48v-.885c-2.161-1.7-9.766-7.654-10.38-8.145A2.609,2.609,0,0,0,12,13.92Z" fill="#6f7681"/>
</svg>
