<svg xmlns="http://www.w3.org/2000/svg" width="24" height="24" viewBox="0 0 24 24">
  <path id="Icon_metro-organization" data-name="Icon metro-organization" d="M25.07,10.928H7.927a3.237,3.237,0,0,0-3.429,3v1.5a2.944,2.944,0,0,0,1.714,2.584v4.916H13.07v3h6.857v-3h6.857V18.012A2.944,2.944,0,0,0,28.5,15.428v-1.5A3.238,3.238,0,0,0,25.07,10.928Zm-13.714,10.5H7.927v-6H6.213v-1.5a1.619,1.619,0,0,1,1.714-1.5h2.189a2.693,2.693,0,0,0-.475,1.5v3a2.944,2.944,0,0,0,1.714,2.584v1.916Zm8.571-3v-3H18.213v9H14.784v-9H13.07v3a1.618,1.618,0,0,1-1.714-1.5v-3a1.619,1.619,0,0,1,1.714-1.5h6.857a1.618,1.618,0,0,1,1.714,1.5v3a1.617,1.617,0,0,1-1.714,1.5Zm6.857-3H25.07v6H21.642V19.512a2.944,2.944,0,0,0,1.714-2.584v-3a2.694,2.694,0,0,0-.475-1.5h2.19a1.618,1.618,0,0,1,1.714,1.5v1.5ZM12.633,9.367a5.565,5.565,0,0,0,7.731,0,3.51,3.51,0,0,0,2.992,1.562,3.238,3.238,0,0,0,3.429-3,3.238,3.238,0,0,0-3.429-3,3.753,3.753,0,0,0-1.858.485,5.037,5.037,0,0,0-5-3.485,5.037,5.037,0,0,0-5,3.485,3.758,3.758,0,0,0-1.858-.485,3.237,3.237,0,0,0-3.429,3,3.237,3.237,0,0,0,3.429,3A3.511,3.511,0,0,0,12.633,9.367ZM23.356,6.428a1.616,1.616,0,0,1,1.714,1.5,1.73,1.73,0,0,1-3.429,0A1.618,1.618,0,0,1,23.356,6.428Zm-6.857-3a3.238,3.238,0,0,1,3.429,3,3.238,3.238,0,0,1-3.429,3,3.237,3.237,0,0,1-3.429-3,3.237,3.237,0,0,1,3.429-3Zm-6.857,6a1.618,1.618,0,0,1-1.714-1.5,1.618,1.618,0,0,1,1.714-1.5,1.616,1.616,0,0,1,1.714,1.5A1.616,1.616,0,0,1,9.642,9.428Z" transform="translate(-4.499 -1.928)" fill="#fff"/>
</svg>
