<svg xmlns="http://www.w3.org/2000/svg" width="43" height="40" viewBox="0 0 43 40">
  <path id="Icon_ionic-md-people" data-name="Icon ionic-md-people" d="M30.011,21.063c3.15,0,5.727-3.657,5.727-8.125s-2.577-8.125-5.727-8.125-5.727,3.657-5.727,8.125S26.861,21.063,30.011,21.063Zm-15.273,0c3.15,0,5.727-3.657,5.727-8.125s-2.577-8.125-5.727-8.125S9.011,8.469,9.011,12.937,11.589,21.063,14.739,21.063Zm0,5.958c-4.487,0-13.364,3.114-13.364,9.479v7.313h27V36.5C28.375,30.135,19.225,27.021,14.739,27.021Zm15.273,1.49a7.1,7.1,0,0,0-1.636.135c2.2,2.3,3,3.792,3,7.854v7.313h12V36.5C43.375,30.135,34.5,28.511,30.011,28.511Z" transform="translate(-0.875 -4.313)" fill="#fabc4c" stroke="#fabc4c" stroke-width="1"/>
</svg>
