<svg xmlns="http://www.w3.org/2000/svg" width="25" height="25" viewBox="0 0 25 25">
  <path id="Icon_awesome-user-tie" data-name="Icon awesome-user-tie" d="M12,12c3.788,0,6.857-2.686,6.857-6S15.788,0,12,0,5.143,2.686,5.143,6,8.212,12,12,12Zm5.132,1.528L14.571,22.5l-1.714-6.375L14.571,13.5H9.429l1.714,2.625L9.429,22.5,6.868,13.528C3.048,13.688,0,16.42,0,19.8v1.95A2.428,2.428,0,0,0,2.571,24H21.429A2.428,2.428,0,0,0,24,21.75V19.8c0-3.38-3.048-6.113-6.868-6.272Z" transform="translate(0.5 0.5)" fill="#fff" stroke="#fff" stroke-width="1"/>
</svg>
