<svg xmlns="http://www.w3.org/2000/svg" width="24" height="24" viewBox="0 0 24 24">
  <path id="Icon_map-book-store" data-name="Icon map-book-store" d="M30.48,21.266V3.527c0-1.148-1.35-2.087-3-2.087h-18c-1.65,0-3,.939-3,2.087V23.353c0,1.148,1.35,2.087,3,2.087h18c1.394,0,3,0,3-1.043v-.522H10.23c-.825,0-1.5-.47-1.5-1.043V21.266H30.48ZM10.23,5.614c0-.287.338-.522.75-.522h15c.413,0,.75.235.75.522V6.657c0,.287-.337.522-.75.522h-15c-.413,0-.75-.235-.75-.522V5.614Zm0,4.174c0-.287.338-.522.75-.522h15c.413,0,.75.235.75.522v1.043c0,.287-.337.522-.75.522h-15c-.413,0-.75-.235-.75-.522V9.788Z" transform="translate(-6.48 -1.44)" fill="#fff"/>
</svg>
