<svg xmlns="http://www.w3.org/2000/svg" width="41.214" height="45" viewBox="0 0 41.214 45">
  <path id="Icon_awesome-user" data-name="Icon awesome-user" d="M20.107,22A11.252,11.252,0,0,0,31.6,11,11.252,11.252,0,0,0,20.107,0,11.252,11.252,0,0,0,8.617,11,11.252,11.252,0,0,0,20.107,22Zm8.043,2.75h-1.5a16.259,16.259,0,0,1-13.088,0h-1.5A11.819,11.819,0,0,0,0,36.3v3.575A4.221,4.221,0,0,0,4.309,44h31.6a4.221,4.221,0,0,0,4.309-4.125V36.3A11.819,11.819,0,0,0,28.15,24.75Z" transform="translate(0.5 0.5)" fill="#fefefe" stroke="#2f3755" stroke-width="1"/>
</svg>
