<svg xmlns="http://www.w3.org/2000/svg" width="43" height="40.003" viewBox="0 0 43 40.003">
  <path id="Icon_awesome-user-graduate" data-name="Icon awesome-user-graduate" d="M12.056,24.42,21,31.686l8.944-7.266C36.647,24.656,42,29.112,42,34.611v.731C42,37.361,39.984,39,37.5,39H4.5C2.016,39,0,37.361,0,35.342v-.731c0-5.5,5.353-9.955,12.056-10.191ZM40.725,6.078l-.6.114v4.448a1.79,1.79,0,0,1,1.125,1.546,1.763,1.763,0,0,1-1.041,1.5l1.463,4.745a.8.8,0,0,1-.713,1.066H37.041a.8.8,0,0,1-.713-1.066l1.463-4.745a1.763,1.763,0,0,1-1.041-1.5,1.79,1.79,0,0,1,1.125-1.546V6.634L31.688,7.845A8.258,8.258,0,0,1,33,12.187c0,5.385-5.372,9.75-12,9.75S9,17.572,9,12.187a8.174,8.174,0,0,1,1.312-4.342L1.284,6.078c-1.706-.335-1.706-2.064,0-2.4l17.85-3.5a9.866,9.866,0,0,1,3.722,0l17.869,3.5C42.422,4.007,42.422,5.743,40.725,6.078Z" transform="translate(0.5 0.505)" fill="#fabc4c" stroke="#fabc4c" stroke-width="1"/>
</svg>
