<svg xmlns="http://www.w3.org/2000/svg" width="24" height="30" viewBox="0 0 24 30">
  <g id="Group_4877" data-name="Group 4877" transform="translate(-245.2 -478.5)">
    <g id="Group_4875" data-name="Group 4875">
      <path id="Icon_feather-shield" data-name="Icon feather-shield" d="M18,33s12-6,12-15V7.5L18,3,6,7.5V18C6,27,18,33,18,33Z" transform="translate(239.2 475.5)" fill="#9E9E9EFF"/>
      <path id="Path_338" data-name="Path 338" d="M574.055,231.888a1.14,1.14,0,0,1-.855-.364l-2.62-2.977a.825.825,0,0,1,.214-1.274,1.2,1.2,0,0,1,1.5.182L574,229.4l4.4-5.628a1.187,1.187,0,0,1,1.482-.253.832.832,0,0,1,.3,1.262l-5.241,6.7a1.124,1.124,0,0,1-.859.405Z" transform="translate(-318.165 265.873)" fill="#707070"/>
    </g>
  </g>
</svg>
